<?xml version="1.0" encoding="UTF-8" standalone="no"?>
<svg
   height="128px"
   viewBox="0 0 128 128"
   width="128px"
   version="1.1"
   id="svg35"
   xml:space="preserve"
   sodipodi:docname="icon.svg"
   inkscape:version="1.4.3 (0d15f75042, 2025-12-25)"
   xmlns:inkscape="http://www.inkscape.org/namespaces/inkscape"
   xmlns:sodipodi="http://sodipodi.sourceforge.net/DTD/sodipodi-0.dtd"
   xmlns="http://www.w3.org/2000/svg"
   xmlns:svg="http://www.w3.org/2000/svg"><sodipodi:namedview
     id="namedview1"
     pagecolor="#ffffff"
     bordercolor="#000000"
     borderopacity="0.25"
     inkscape:showpageshadow="2"
     inkscape:pageopacity="0.0"
     inkscape:pagecheckerboard="0"
     inkscape:deskcolor="#d1d1d1"
     inkscape:zoom="4.4028446"
     inkscape:cx="64.958005"
     inkscape:cy="62.346057"
     inkscape:window-width="1920"
     inkscape:window-height="1008"
     inkscape:window-x="0"
     inkscape:window-y="0"
     inkscape:window-maximized="1"
     inkscape:current-layer="svg35" /><defs
     id="defs39"><rect
       x="4.7696437"
       y="31.116247"
       width="117.87834"
       height="71.544656"
       id="rect1" /><linearGradient
       id="a-63"
       gradientUnits="userSpaceOnUse"
       x1="22.00001"
       x2="128.00002"
       y1="67"
       y2="67"
       gradientTransform="matrix(1.100205,0,0,1.100205,-18.024884,-8.7127739)"><stop
         offset="0"
         stop-color="#5c596d"
         id="stop1-9" /><stop
         offset="0.811321"
         stop-color="#b3b2c0"
         id="stop2-4" /><stop
         offset="1"
         stop-color="#838289"
         id="stop3-8" /></linearGradient><linearGradient
       id="b-7"
       gradientUnits="userSpaceOnUse"
       x1="37.999992"
       x2="119.99995"
       y1="101.99996"
       y2="19.999989"
       gradientTransform="matrix(1.100205,0,0,1.100205,-18.024884,-8.7127739)"><stop
         offset="0"
         stop-color="#a3b6d1"
         id="stop4-6" /><stop
         offset="0.195122"
         stop-color="#a9c5f0"
         id="stop5-7"
         style="stop-color:#a9e0f0;stop-opacity:1;" /><stop
         offset="0.45122001"
         stop-color="#dbdeff"
         id="stop6-3"
         style="stop-color:#ebdbff;stop-opacity:1;" /><stop
         offset="0.70731699"
         stop-color="#b7c5ef"
         id="stop7-6"
         style="stop-color:#b7e6ef;stop-opacity:1;" /><stop
         offset="1"
         stop-color="#8fb2dd"
         id="stop8-5" /></linearGradient><linearGradient
       id="c-7"
       gradientUnits="userSpaceOnUse"
       x1="3.00001"
       x2="47.000011"
       y1="70"
       y2="70"
       gradientTransform="matrix(0.55555555,0,0,0.55555555,27.611109,37.329195)"><stop
         offset="0"
         stop-color="#9a3800"
         id="stop9-7" /><stop
         offset="0.0909091"
         stop-color="#ed5300"
         id="stop10-1" /><stop
         offset="0.181818"
         stop-color="#c64600"
         id="stop11-1" /><stop
         offset="0.818182"
         stop-color="#c64600"
         id="stop12-5" /><stop
         offset="0.909091"
         stop-color="#ed5300"
         id="stop13-9" /><stop
         offset="1"
         stop-color="#9a3800"
         id="stop14-7" /></linearGradient><linearGradient
       id="d-5"
       gradientTransform="matrix(0.69444444,0,0,0.67901388,19.277776,14.366073)"
       gradientUnits="userSpaceOnUse"
       x1="20"
       x2="44"
       y1="122.99989"
       y2="122.99989"><stop
         offset="0"
         stop-color="#adadaa"
         id="stop15-9" /><stop
         offset="0.0833333"
         stop-color="#d7d6d5"
         id="stop16-4" /><stop
         offset="0.166667"
         stop-color="#afafab"
         id="stop17-9" /><stop
         offset="0.654803"
         stop-color="#b8b8b4"
         id="stop18-0" /><stop
         offset="0.938916"
         stop-color="#a3a29f"
         id="stop19-9" /><stop
         offset="1"
         stop-color="#8d8b88"
         id="stop20-1" /></linearGradient><linearGradient
       id="e-0"
       gradientTransform="matrix(0.69444444,0,0,0.62500166,19.277782,21.495634)"
       gradientUnits="userSpaceOnUse"
       x1="19.500002"
       x2="44.5"
       y1="128.00002"
       y2="128.00002"><stop
         offset="0"
         stop-color="#e0e0e0"
         id="stop21-6" /><stop
         offset="1"
         stop-color="#d1ccc5"
         id="stop22-1" /></linearGradient><linearGradient
       id="f-2"
       gradientTransform="matrix(0.64814833,0,0,0.48611166,20.75926,39.273551)"
       gradientUnits="userSpaceOnUse"
       x1="19.500002"
       x2="44.5"
       y1="128.00002"
       y2="128.00002"><stop
         offset="0"
         stop-color="#545251"
         id="stop23-2" /><stop
         offset="0.471382"
         stop-color="#7d7c7a"
         id="stop24-6" /><stop
         offset="1"
         stop-color="#908e8d"
         id="stop25-1" /></linearGradient><linearGradient
       id="g-1"
       gradientUnits="userSpaceOnUse"
       x1="3.00001"
       x2="47.000011"
       y1="91"
       y2="91"
       gradientTransform="matrix(0.55555555,0,0,0.55555555,27.611109,37.329195)"><stop
         offset="0"
         stop-color="#ff8500"
         stop-opacity="0.152941"
         id="stop26-7" /><stop
         offset="0.185933"
         stop-color="#ff7c00"
         stop-opacity="0.341176"
         id="stop27-2" /><stop
         offset="1"
         stop-color="#ffa200"
         stop-opacity="0.137255"
         id="stop28-7" /></linearGradient></defs><linearGradient
     id="a"
     gradientUnits="userSpaceOnUse"
     x1="36"
     x2="60"
     y1="68"
     y2="68"><stop
       offset="0"
       stop-color="#ed336c"
       id="stop2" /><stop
       offset="1"
       stop-color="#ffa348"
       id="stop4" /></linearGradient><linearGradient
     id="b"
     gradientTransform="matrix(0 1 -1 0 144 -32)"
     gradientUnits="userSpaceOnUse"
     x1="72"
     x2="96"
     y1="68"
     y2="68"><stop
       offset="0"
       stop-color="#404ce6"
       id="stop7" /><stop
       offset="1"
       stop-color="#c061cb"
       id="stop9" /></linearGradient><linearGradient
     id="c"
     gradientUnits="userSpaceOnUse"
     x1="68.84919"
     x2="95.257637"
     y1="84"
     y2="84"><stop
       offset="0"
       stop-color="#33d1c6"
       id="stop12" /><stop
       offset="1"
       stop-color="#1c25d8"
       id="stop14" /></linearGradient><path
     d="m 64.490497,6.6900972 c -32.202484,0 -58.3108664,26.1083818 -58.3108664,58.3108668 0,32.202485 26.1083824,58.310866 58.3108664,58.310866 32.202484,0 58.310863,-26.108381 58.310863,-58.310866 0,-32.202485 -26.108379,-58.3108668 -58.310863,-58.3108668 z m 0,50.6094308 c 4.254702,0 7.701435,3.446735 7.701435,7.701436 0,4.254701 -3.446733,7.701435 -7.701435,7.701435 -4.254702,0 -7.701436,-3.446734 -7.701436,-7.701435 0,-4.254701 3.446734,-7.701436 7.701436,-7.701436 z m 0,0"
     fill="url(#a)"
     id="path28-2"
     style="fill:url(#a-63);stroke-width:1.10021" /><path
     d="m 64.490497,4.489687 c -32.202484,0 -58.3108664,26.10838 -58.3108664,58.310868 0,32.202483 26.1083824,58.310865 58.3108664,58.310865 32.202484,0 58.310863,-26.108382 58.310863,-58.310865 0,-32.202488 -26.108379,-58.310868 -58.310863,-58.310868 z m 0,50.536372 c 4.293372,0 7.774499,3.481116 7.774499,7.774496 0,4.293377 -3.481127,7.774494 -7.774499,7.774494 -0.193403,-0.03009 -0.382498,-0.06876 -0.57159,-0.111734 -0.63176,-0.04727 -1.259218,-0.171915 -1.86519,-0.3739 -0.339522,-0.111734 -0.670441,-0.249261 -0.99706,-0.412576 -0.601679,-0.296538 -1.168967,-0.674735 -1.671805,-1.117395 -0.232066,-0.206289 -0.446958,-0.421173 -0.653246,-0.653247 -0.442656,-0.502827 -0.820854,-1.070122 -1.117391,-1.671796 -0.163321,-0.326623 -0.300841,-0.657543 -0.412577,-0.997059 -0.201987,-0.605974 -0.326629,-1.233433 -0.373893,-1.865194 -0.04301,-0.189105 -0.08164,-0.378195 -0.111759,-0.57159 0.03004,-0.193403 0.06876,-0.382491 0.111759,-0.571591 0.0473,-0.631758 0.171915,-1.259217 0.373893,-1.865192 0.111733,-0.339515 0.249262,-0.670437 0.412577,-0.997059 0.296537,-0.601676 0.674735,-1.168968 1.117391,-1.671796 0.206288,-0.232074 0.42118,-0.44696 0.653246,-0.653246 0.502838,-0.442663 1.070126,-0.820857 1.671805,-1.117396 0.326619,-0.163322 0.657538,-0.300839 0.99706,-0.412579 0.605972,-0.201989 1.23343,-0.326621 1.86519,-0.373898 0.189086,-0.04298 0.378194,-0.08165 0.57159,-0.111733 z m 0,0"
     fill="#d1d4db"
     id="path29-9"
     style="stroke-width:1.10021" /><path
     d="m 64.490497,6.6900972 c -30.990542,0 -56.1104568,25.1199148 -56.1104568,56.1104578 0,30.990539 25.1199148,56.110465 56.1104568,56.110465 30.990542,0 56.110453,-25.119926 56.110453,-56.110465 0,-30.990543 -25.119911,-56.1104578 -56.110453,-56.1104578 z m 0,48.4090218 c 0.326617,0 0.653246,0.02148 0.979864,0.06447 0.01723,0.0043 0.03005,0.0043 0.0473,0.0085 0.318036,0.03867 0.631761,0.103137 0.945494,0.184809 0.01723,0.0043 0.03432,0.0085 0.05158,0.01723 0.313737,0.08165 0.623169,0.189107 0.923996,0.313731 0.296539,0.120331 0.588786,0.266457 0.868139,0.42547 0.02145,0.01287 0.03873,0.02148 0.05589,0.03438 0.279341,0.159023 0.5458,0.339516 0.799364,0.532911 0.0088,0.0043 0.01287,0.0085 0.01723,0.01287 0.0088,0.0043 0.01287,0.0085 0.01723,0.01723 0.262157,0.197699 0.50713,0.412577 0.739197,0.644651 0.232075,0.232075 0.446957,0.477041 0.644654,0.7392 0.0088,0.0043 0.01286,0.01287 0.02146,0.01723 0,0.0043 0.0043,0.0085 0.0088,0.01723 0.193402,0.253564 0.373893,0.520019 0.532917,0.79937 0.01287,0.01723 0.02146,0.03867 0.03432,0.05586 0.159005,0.279349 0.305131,0.57159 0.429762,0.868128 0.120344,0.300838 0.227776,0.610272 0.313734,0.924002 0.0043,0.01723 0.0088,0.03438 0.01287,0.05586 0.08163,0.309433 0.146111,0.623164 0.189085,0.941191 0,0.01723 0.0043,0.03009 0.0043,0.04727 0.04276,0.32662 0.06424,0.653241 0.06424,0.979866 -0.0043,0.97987 -0.197701,1.951145 -0.5673,2.857955 -0.01723,0.04727 -0.03432,0.09453 -0.05158,0.146131 -0.378196,0.876724 -0.915404,1.680391 -1.585837,2.363721 -0.04301,0.04297 -0.08593,0.08596 -0.128941,0.128942 -0.683326,0.670435 -1.486994,1.207644 -2.363725,1.585841 -0.05161,0.01723 -0.0988,0.03438 -0.146113,0.05157 -0.906778,0.369604 -1.87806,0.563001 -2.857926,0.567298 -0.979875,-0.0043 -1.951149,-0.1977 -2.85796,-0.571592 -0.0473,-0.01287 -0.0945,-0.03009 -0.14611,-0.05157 -0.876722,-0.373899 -1.680387,-0.911107 -2.363725,-1.581545 -0.04301,-0.04297 -0.08593,-0.08596 -0.128922,-0.128922 -0.670442,-0.683329 -1.207651,-1.486996 -1.585846,-2.36802 -0.01723,-0.04727 -0.03432,-0.09453 -0.0473,-0.141815 -0.37386,-0.906814 -0.567255,-1.87809 -0.571556,-2.85796 0.0043,-0.97987 0.1977,-1.951146 0.567285,-2.857953 0.01723,-0.04727 0.03432,-0.09453 0.05161,-0.146131 0.378195,-0.876727 0.915404,-1.680391 1.585836,-2.363723 l 0.128921,-0.128922 c 0.683328,-0.670439 1.486994,-1.207647 2.363725,-1.585842 0.05161,-0.01723 0.0988,-0.03438 0.146113,-0.05157 0.906788,-0.369604 1.87806,-0.563 2.857937,-0.567297 z m 0,0"
     fill="url(#b)"
     id="path30-3"
     style="fill:url(#b-7);stroke-width:1.10021" /><path
     d="m 64.490497,44.097067 c -10.33162,0 -18.703488,8.371874 -18.703488,18.703488 0,10.331613 8.371868,18.703484 18.703488,18.703484 10.331607,0 18.703485,-8.371871 18.703485,-18.703484 0,-10.331614 -8.371878,-18.703488 -18.703485,-18.703488 z m 0,11.002052 c 4.254702,0 7.701435,3.446735 7.701435,7.701436 0,4.254698 -3.446733,7.701434 -7.701435,7.701434 -4.254702,0 -7.701436,-3.446736 -7.701436,-7.701434 0,-4.254701 3.446734,-7.701436 7.701436,-7.701436 z m 0,0"
     fill="#757c9b"
     id="path31-9"
     style="stroke-width:1.10021" /><path
     d="m 64.490497,46.297479 c -9.115377,0 -16.503076,7.387703 -16.503076,16.503076 0,9.115369 7.387699,16.503074 16.503076,16.503074 9.115374,0 16.503074,-7.387705 16.503074,-16.503074 0,-9.115373 -7.3877,-16.503076 -16.503074,-16.503076 z m 0,8.80164 c 0.167598,0 0.330918,0.0043 0.498524,0.01723 0.03873,0.0043 0.07736,0.0043 0.116027,0.0085 0.124625,0.0085 0.249273,0.02578 0.373904,0.03867 0.0473,0.0085 0.0945,0.01287 0.141814,0.01723 0.0088,0.0043 0.01287,0.0043 0.02146,0.0043 0.146131,0.02578 0.287946,0.05157 0.434073,0.08165 0.03862,0.0085 0.07305,0.01723 0.111734,0.02148 0.137517,0.03438 0.279341,0.06876 0.416868,0.107453 0.02575,0.0085 0.05589,0.01723 0.08163,0.02149 0.150429,0.04727 0.296538,0.09453 0.442667,0.150408 0.04301,0.01723 0.08593,0.03438 0.133219,0.04727 0.120344,0.04727 0.24067,0.09884 0.365301,0.150429 0.03004,0.01723 0.06448,0.03009 0.0988,0.04727 0.133239,0.06016 0.262157,0.124625 0.39539,0.193403 0.0043,0.0043 0.0088,0.0085 0.01723,0.01288 0.0473,0.02578 0.0945,0.05157 0.141815,0.08165 0.0988,0.05586 0.201997,0.116027 0.30084,0.180512 0.03873,0.02148 0.08163,0.04727 0.120343,0.07305 0.137516,0.09024 0.270751,0.18051 0.399682,0.279349 0,0 0.0043,0 0.0043,0.0043 0.0088,0.0043 0.01287,0.0085 0.02145,0.01723 0.116026,0.08595 0.232065,0.176213 0.343813,0.275051 0.03432,0.03009 0.06876,0.06016 0.107491,0.09024 0.120332,0.107429 0.240668,0.21918 0.356708,0.335218 0.116027,0.116026 0.227774,0.236373 0.33521,0.361005 0.03004,0.03438 0.06018,0.06876 0.0945,0.107454 0.0945,0.107441 0.184808,0.223478 0.275052,0.339517 0.0043,0.0085 0.0088,0.01287 0.01723,0.02148 0,0 0,0.0043 0.0043,0.0043 0.0945,0.128923 0.184808,0.262159 0.275052,0.399684 0.02575,0.03867 0.05161,0.08165 0.07736,0.120332 0.06019,0.09885 0.120344,0.201991 0.180511,0.305134 0.02575,0.04298 0.05158,0.09024 0.07736,0.141815 0.0043,0.0043 0.0088,0.0085 0.01287,0.01723 0.06876,0.128921 0.133219,0.25786 0.193402,0.391089 0.01723,0.03438 0.03004,0.06876 0.0473,0.103136 0.05158,0.120332 0.103074,0.24067 0.150429,0.365303 0.01287,0.04298 0.03004,0.08596 0.0473,0.133219 0.05589,0.141816 0.103098,0.287945 0.150428,0.438364 0.0043,0.02578 0.01288,0.05586 0.02145,0.08596 0.03873,0.133221 0.07305,0.275052 0.10749,0.41258 0.0043,0.03867 0.01286,0.07305 0.02146,0.111733 0.03004,0.146111 0.05589,0.292241 0.08163,0.438362 0,0.0043 0,0.01287 0.0043,0.01723 0.0043,0.04727 0.0088,0.09453 0.01723,0.14613 0.01287,0.120332 0.03004,0.244969 0.03873,0.373898 0.0043,0.03438 0.0043,0.07305 0.0088,0.111733 0.01247,0.1676 0.01684,0.330917 0.01684,0.498526 -0.0043,0.455553 -0.0473,0.90681 -0.133219,1.353769 -0.02146,0.120331 -0.0473,0.236371 -0.07733,0.352409 -0.08164,0.348111 -0.184807,0.687627 -0.309433,1.01855 -0.03873,0.107427 -0.07736,0.214882 -0.116051,0.318027 -0.18051,0.416873 -0.391089,0.81226 -0.63606,1.186158 -0.04301,0.06447 -0.09022,0.124624 -0.137517,0.184808 -0.219183,0.31373 -0.464145,0.610268 -0.726301,0.885319 -0.08593,0.09024 -0.176213,0.180511 -0.262168,0.26216 -0.279342,0.266455 -0.575881,0.511422 -0.885313,0.730604 -0.06448,0.04727 -0.124624,0.09454 -0.184807,0.137537 -0.378196,0.244965 -0.773588,0.455551 -1.186164,0.631757 -0.10749,0.04297 -0.214881,0.08165 -0.318027,0.120331 -0.33522,0.124624 -0.674733,0.227776 -1.018547,0.309432 -0.120343,0.03009 -0.236369,0.05586 -0.356707,0.07736 -0.44697,0.08595 -0.898231,0.128941 -1.353781,0.133239 -0.455553,-0.0043 -0.906811,-0.04727 -1.353771,-0.133219 -0.120332,-0.02148 -0.236367,-0.04727 -0.352407,-0.07736 -0.348115,-0.08165 -0.687627,-0.184809 -1.018546,-0.309433 -0.107491,-0.03868 -0.214892,-0.07736 -0.318036,-0.116027 -0.416867,-0.180511 -0.81226,-0.391088 -1.186153,-0.636055 -0.06448,-0.04298 -0.124625,-0.09024 -0.184809,-0.137536 -0.313734,-0.219181 -0.610272,-0.464149 -0.885324,-0.726307 -0.09021,-0.08596 -0.180491,-0.176213 -0.262155,-0.262159 -0.266458,-0.279349 -0.51142,-0.575887 -0.730603,-0.885321 -0.0473,-0.06447 -0.0945,-0.124624 -0.137518,-0.184807 -0.244972,-0.378196 -0.455549,-0.773581 -0.63176,-1.186159 -0.04301,-0.107453 -0.08164,-0.214882 -0.120331,-0.318028 -0.124645,-0.335219 -0.227786,-0.674734 -0.309432,-1.01855 -0.03004,-0.120332 -0.05589,-0.236371 -0.07736,-0.356706 -0.08596,-0.446962 -0.128942,-0.898217 -0.13324,-1.35377 0.0043,-0.455553 0.0473,-0.906811 0.133219,-1.353768 0.02146,-0.120332 0.0473,-0.236372 0.07736,-0.356708 0.08163,-0.343815 0.184808,-0.683329 0.309434,-1.01855 0.03872,-0.103135 0.07735,-0.210584 0.120343,-0.318027 0.176214,-0.412576 0.386788,-0.807963 0.63176,-1.186158 0.04301,-0.06016 0.09022,-0.120332 0.137517,-0.184808 0.219183,-0.309433 0.464143,-0.605972 0.730601,-0.88532 0.08164,-0.08596 0.171916,-0.176214 0.262158,-0.262159 0.275052,-0.26216 0.57159,-0.507126 0.885324,-0.726309 0.06018,-0.04727 0.120331,-0.09453 0.184809,-0.137517 0.373893,-0.244967 0.769283,-0.455553 1.186151,-0.636055 0.103098,-0.03867 0.210591,-0.07736 0.318038,-0.116026 0.330919,-0.124624 0.67043,-0.227778 1.018546,-0.309432 0.116027,-0.03009 0.232067,-0.05586 0.352407,-0.07736 0.446969,-0.08595 0.898228,-0.128941 1.353781,-0.133239 z m 0,0"
     fill="#d8dae5"
     id="path34-0"
     style="stroke-width:1.10021" /></svg>
